<?xml version="1.0" encoding="utf-8"?>
<!-- Generator: Adobe Illustrator 22.0.0, SVG Export Plug-In . SVG Version: 6.00 Build 0)  -->
<svg version="1.1" id="Layer_1" xmlns="http://www.w3.org/2000/svg" xmlns:xlink="http://www.w3.org/1999/xlink" x="0px" y="0px"
	 viewBox="0 0 101.3 92.1" style="enable-background:new 0 0 101.3 92.1;" xml:space="preserve">
<g>
	<path d="M59.4,66.1c-0.7-1.2-2.2-1.6-3.4-0.9l-2.7,1.6v-3.2c0-1.4-1.1-2.5-2.5-2.5s-2.5,1.1-2.5,2.5v3.2l-2.7-1.6
		c-1.2-0.7-2.7-0.3-3.4,0.9c-0.7,1.2-0.3,2.7,0.9,3.4l2.7,1.6l-2.7,1.6c-1.2,0.7-1.6,2.2-0.9,3.4c0.5,0.8,1.3,1.2,2.2,1.2
		c0.4,0,0.9-0.1,1.2-0.3l2.7-1.6v3.2c0,1.4,1.1,2.5,2.5,2.5s2.5-1.1,2.5-2.5v-3.2L56,77c0.4,0.2,0.8,0.3,1.2,0.3
		c0.9,0,1.7-0.4,2.2-1.2c0.7-1.2,0.3-2.7-0.9-3.4l-2.8-1.6l2.7-1.6C59.6,68.8,60,67.3,59.4,66.1z"/>
	<path d="M12,76.1c0.5,0.8,1.3,1.2,2.2,1.2c0.4,0,0.9-0.1,1.2-0.3l2.7-1.6v3.2c0,1.4,1.1,2.5,2.5,2.5s2.5-1.1,2.5-2.5v-3.2l2.7,1.6
		c0.4,0.2,0.8,0.3,1.2,0.3c0.9,0,1.7-0.4,2.2-1.2c0.7-1.2,0.3-2.7-0.9-3.4l-2.6-1.6l2.7-1.6c1.2-0.7,1.6-2.2,0.9-3.4
		c-0.7-1.2-2.2-1.6-3.4-0.9l-2.7,1.6v-3.2c0-1.4-1.1-2.5-2.5-2.5s-2.5,1.1-2.5,2.5v3.2l-2.7-1.6c-1.2-0.7-2.7-0.3-3.4,0.9
		c-0.7,1.2-0.3,2.7,0.9,3.4l2.7,1.6L13,72.7C11.8,73.4,11.3,74.9,12,76.1z"/>
	<path d="M89.4,66.1c-0.7-1.2-2.2-1.6-3.4-0.9l-2.7,1.6v-3.2c0-1.4-1.1-2.5-2.5-2.5s-2.5,1.1-2.5,2.5v3.2l-2.7-1.6
		c-1.2-0.7-2.7-0.3-3.4,0.9c-0.7,1.2-0.3,2.7,0.9,3.4l2.7,1.6l-2.7,1.6c-1.2,0.7-1.6,2.2-0.9,3.4c0.5,0.8,1.3,1.2,2.2,1.2
		c0.4,0,0.9-0.1,1.2-0.3l2.7-1.6v3.2c0,1.4,1.1,2.5,2.5,2.5s2.5-1.1,2.5-2.5v-3.2L86,77c0.4,0.2,0.8,0.3,1.2,0.3
		c0.9,0,1.7-0.4,2.2-1.2c0.7-1.2,0.3-2.7-0.9-3.4l-2.8-1.6l2.7-1.6C89.6,68.8,90,67.3,89.4,66.1z"/>
	<path d="M17,50.7c0.5,0.8,1.3,1.2,2.2,1.2c0.4,0,0.9-0.1,1.2-0.3l27.7-16v3.2c0,1.4,1.1,2.5,2.5,2.5s2.5-1.1,2.5-2.5v-3.2l2.7,1.6
		c0.4,0.2,0.8,0.3,1.2,0.3c0.9,0,1.7-0.4,2.2-1.2c0.7-1.2,0.3-2.7-0.9-3.4l-2.6-1.6l27.7-16c1.2-0.7,1.6-2.2,0.9-3.4
		s-2.2-1.6-3.4-0.9L53.2,27v-3.2c0-1.4-1.1-2.5-2.5-2.5s-2.5,1.1-2.5,2.5V27l-2.7-1.6c-1.2-0.7-2.7-0.3-3.4,0.9S41.8,29,43,29.7
		l2.7,1.6L18,47.3C16.8,48,16.3,49.5,17,50.7z"/>
	<path d="M12,36.3c0.5,0.8,1.3,1.2,2.2,1.2c0.4,0,0.9-0.1,1.2-0.3l2.8-1.6v3.2c0,1.4,1.1,2.5,2.5,2.5s2.5-1.1,2.5-2.5v-3.2l2.7,1.6
		c0.4,0.2,0.8,0.3,1.2,0.3c0.9,0,1.7-0.4,2.2-1.2c0.7-1.2,0.3-2.7-0.9-3.4l-2.7-1.6l2.7-1.6c1.2-0.7,1.6-2.2,0.9-3.4
		c-0.7-1.2-2.2-1.6-3.4-0.9L23.2,27v-3.2c0-1.4-1.1-2.5-2.5-2.5s-2.5,1.1-2.5,2.5V27l-2.7-1.6c-1.2-0.7-2.7-0.3-3.4,0.9
		S11.8,29,13,29.7l2.7,1.6L13,32.9C11.8,33.6,11.3,35.1,12,36.3z"/>
	<path d="M89.4,26.3c-0.7-1.2-2.2-1.6-3.4-0.9L83.3,27v-3.2c0-1.4-1.1-2.5-2.5-2.5s-2.5,1.1-2.5,2.5V27l-2.7-1.6
		c-1.2-0.7-2.7-0.3-3.4,0.9c-0.7,1.2-0.3,2.7,0.9,3.4l2.7,1.6l-2.7,1.6c-1.2,0.7-1.6,2.2-0.9,3.4c0.5,0.8,1.3,1.2,2.2,1.2
		c0.4,0,0.9-0.1,1.2-0.3l2.7-1.6v3.2c0,1.4,1.1,2.5,2.5,2.5s2.5-1.1,2.5-2.5v-3.2l2.7,1.6c0.4,0.2,0.8,0.3,1.2,0.3
		c0.9,0,1.7-0.4,2.2-1.2c0.7-1.2,0.3-2.7-0.9-3.4l-2.8-1.6l2.7-1.6C89.6,29,90,27.5,89.4,26.3z"/>
</g>
</svg>
